<?xml version="1.0" encoding="iso-8859-1"?>
<!-- Generator: Adobe Illustrator 19.0.0, SVG Export Plug-In . SVG Version: 6.00 Build 0)  -->
<svg version="1.1" id="Capa_1" xmlns="http://www.w3.org/2000/svg" xmlns:xlink="http://www.w3.org/1999/xlink" x="0px" y="0px"
	 viewBox="0 0 511.996 511.996" style="enable-background:new 0 0 511.996 511.996;" xml:space="preserve">
<path style="fill:#FEE2B9;" d="M304.387,430.573c0,0,44.141-53.488,66.751-77.747c12.072-12.954,17.716-30.333,7.41-44.732
	s-32.573-20.282-44.732-7.41c-23.168,24.525-77.521,89.812-77.521,89.812"/>
<path style="fill:#FDD495;" d="M378.547,308.093c-3.436-4.8-8.209-8.633-13.486-11.158l-91.037,108.337l30.361,25.301
	c0,0,44.141-53.488,66.751-77.747C383.21,339.872,388.854,322.492,378.547,308.093z"/>
<path style="fill:#FEE2B9;" d="M360.495,430.573c0,0,44.141-53.488,66.751-77.747c12.072-12.954,17.716-30.333,7.41-44.732
	c-10.306-14.399-32.573-20.282-44.732-7.41c-23.168,24.525-77.521,89.812-77.521,89.812"/>
<path style="fill:#FDD495;" d="M434.655,308.093c-2.47-3.451-5.628-6.407-9.169-8.737l-91.699,108.96l26.707,22.256
	c0,0,44.141-53.488,66.751-77.747C439.318,339.872,444.962,322.492,434.655,308.093z"/>
<path style="fill:#FEF1DC;" d="M491.369,349.82c-22.61,24.26-66.751,77.747-66.751,77.747l-147.118,73.559
	c-8.371,4.186-18.154,4.505-26.78,0.873l-138.701-58.401H7.818v-40.077v-48.092c0,0,40.077-48.092,128.246-48.092
	c56.108,0,88.169,32.062,88.169,32.062l101.094,25.493c12.05,3.76,20.295,13.979,22.128,25.659l29.07-3.06
	c0,0,54.352-65.287,77.521-89.812c12.159-12.872,34.426-6.988,44.732,7.41C509.085,319.486,503.441,336.867,491.369,349.82z"/>
<path style="fill:#FEE2B9;" d="M498.778,305.088c-2.78-3.884-6.434-7.141-10.522-9.584c2.19,11.567-3.247,23.769-12.3,33.481
	c-22.61,24.26-66.751,77.747-66.751,77.747l-131.707,70.349c-8.371,4.186-18.154,4.505-26.78,0.873l-138.701-58.401H7.817v24.046
	h104.2L250.718,502c8.626,3.632,18.408,3.313,26.78-0.873l147.118-73.559c0,0,44.141-53.488,66.751-77.747
	C503.441,336.867,509.085,319.486,498.778,305.088z"/>
<path style="fill:#F498AC;" d="M256.295,34.107C129.212-48.122,70.749,80.97,114.261,146.239
	c59.804,89.705,142.033,142.033,142.033,142.033s82.23-52.328,142.033-142.033C441.84,80.97,383.377-48.122,256.295,34.107z"/>
<path style="fill:#F17E97;" d="M339.85,7.892c44.853,23.182,57.751,89.341,30.423,130.332
	c-48.196,72.293-110.944,120.301-133.493,136.22c12.052,9.079,19.513,13.83,19.513,13.83s82.23-52.328,142.033-142.033
	C430.699,97.681,406.626,13.802,339.85,7.892z"/>
<g>
	<path style="fill:#FFFFFF;" d="M202.191,173.877c0-29.88,24.224-54.104,54.104-54.104s54.104,24.224,54.104,54.104
		s-24.224,42.081-54.104,42.081C226.413,215.958,202.191,203.757,202.191,173.877z"/>
	<path style="fill:#FFFFFF;" d="M208.202,83.704c0-9.96,8.075-24.046,18.035-24.046s18.035,14.086,18.035,24.046
		s-8.075,18.035-18.035,18.035S208.202,93.664,208.202,83.704z"/>
	<path style="fill:#FFFFFF;" d="M268.318,83.704c0-9.96,8.074-24.046,18.035-24.046c9.96,0,18.035,14.086,18.035,24.046
		s-8.074,18.035-18.035,18.035C276.392,101.738,268.318,93.664,268.318,83.704z"/>
	<path style="fill:#FFFFFF;" d="M316.41,119.773c0-9.96,8.074-24.046,18.035-24.046c9.96,0,18.035,14.086,18.035,24.046
		s-8.074,18.035-18.035,18.035C324.485,137.807,316.41,129.733,316.41,119.773z"/>
	<path style="fill:#FFFFFF;" d="M160.11,119.773c0-9.96,8.075-24.046,18.035-24.046s18.035,14.086,18.035,24.046
		s-8.075,18.035-18.035,18.035S160.11,129.733,160.11,119.773z"/>
</g>
<path style="fill:#FEE2B9;" d="M346.15,379.802c-0.132,0.512-0.277,1.023-0.436,1.533c-5.275,16.903-23.254,26.33-40.157,21.055
	l-81.992-22.582h-65.124v16.031h65.124l81.992,22.582c16.903,5.275,34.882-4.152,40.157-21.055
	C347.562,391.445,347.6,385.395,346.15,379.802z"/>
<path d="M504.889,300.713c-7.173-10.022-19.124-16.758-31.187-17.578c-9.848-0.676-18.769,2.661-25.118,9.381
	c-2.634,2.788-5.653,6.082-8.937,9.731c-7.257-9.203-18.608-15.327-30.068-16.106c-9.846-0.675-18.769,2.661-25.118,9.381
	c-1.1,1.165-2.276,2.429-3.506,3.763c-7.216-7.536-17.304-12.453-27.484-13.144c-9.849-0.675-18.769,2.661-25.118,9.381
	c-9.268,9.811-24.371,26.999-44.874,51.065l-55.534-14.004c-7.385-6.656-39.681-32.762-91.881-32.762
	c-90.647,0-132.291,48.723-134.019,50.796c-2.412,2.895-2.27,7.273,0.336,9.998c3.059,3.199,8.376,3.023,11.211-0.377
	c0.378-0.454,38.791-45.389,122.473-45.389c51.882,0,82.352,29.367,82.866,29.87c0.946,0.946,2.171,1.631,3.466,1.963l100.88,25.438
	c12.804,4.107,19.947,17.828,15.935,30.687c-1.954,6.259-6.227,11.383-12.034,14.428c-5.806,3.045-12.45,3.646-18.711,1.692
	c-0.081-0.025-0.161-0.049-0.243-0.071l-81.993-22.581c-0.643-0.174-1.328-0.271-1.995-0.271H160.11
	c-4.15,0-7.514,3.363-7.514,7.514s3.364,7.514,7.514,7.514h63.108l80.897,22.28c9.947,3.069,20.82,2.066,30.038-2.769
	c9.363-4.908,16.253-13.17,19.401-23.261c1.037-3.323,1.607-6.682,1.756-10.007l22-2.315c1.946-0.205,3.736-1.161,4.989-2.665
	c0.542-0.651,54.467-65.389,77.209-89.461c9.455-10.008,26.332-2.917,33.16,6.623c10.497,14.666-2.548,30.677-6.796,35.236
	c-20.875,22.398-59.155,68.543-66.035,76.861l-145.699,72.849c-6.414,3.207-13.889,3.453-20.503,0.667l-138.701-58.4
	c-0.923-0.389-1.915-0.589-2.917-0.589H7.818c-4.15,0-7.514,3.363-7.514,7.514s3.364,7.514,7.514,7.514H110.5l137.304,57.811
	c10.573,4.452,22.796,4.054,33.057-1.076l147.118-73.559c0.938-0.469,1.767-1.129,2.435-1.939
	c0.44-0.533,44.257-53.591,66.453-77.408C513.207,337.41,516.282,316.63,504.889,300.713z M299.738,350.688
	c17.707-20.701,31.308-36.131,39.54-44.844c4.111-4.352,9.432-4.954,13.173-4.708c6.768,0.46,13.737,4.058,18.399,9.352
	c-12.753,14.369-28.391,32.664-41.293,47.911c-0.785-0.291-1.581-0.588-2.393-0.795L299.738,350.688z M372.706,380.336
	l-19.601,2.063c-2.149-6.102-5.775-11.636-10.58-16.059c17.74-20.945,40.103-46.993,52.86-60.497
	c4.111-4.352,9.433-4.954,13.173-4.708c7.583,0.516,15.428,4.964,19.984,11.331c0.309,0.432,0.595,0.871,0.869,1.315
	C407.488,338.766,380.266,371.281,372.706,380.336z"/>
<path d="M194.676,173.877c0,31.055,23.035,49.595,61.618,49.595c38.584,0,61.618-18.541,61.618-49.595
	c0-33.976-27.642-61.618-61.618-61.618S194.676,139.899,194.676,173.877z M256.295,127.287c25.69,0,46.589,20.899,46.589,46.589
	c0,30.076-29.19,34.566-46.589,34.566s-46.589-4.491-46.589-34.566C209.705,148.186,230.604,127.287,256.295,127.287z"/>
<path d="M226.237,109.253c14.088,0,25.549-11.461,25.549-25.549c0-12.564-10.19-31.561-25.549-31.561s-25.549,18.996-25.549,31.561
	C200.688,97.791,212.149,109.253,226.237,109.253z M226.237,67.172c4.523,0,10.52,9.424,10.52,16.532
	c0,5.801-4.719,10.52-10.52,10.52s-10.52-4.719-10.52-10.52C215.717,76.596,221.713,67.172,226.237,67.172z"/>
<path d="M286.352,109.253c14.088,0,25.549-11.461,25.549-25.549c0-12.564-10.191-31.561-25.549-31.561s-25.549,18.996-25.549,31.561
	C260.803,97.791,272.264,109.253,286.352,109.253z M286.352,67.172c4.523,0,10.52,9.424,10.52,16.532
	c0,5.801-4.719,10.52-10.52,10.52s-10.52-4.719-10.52-10.52C275.832,76.596,281.83,67.172,286.352,67.172z"/>
<path d="M334.445,145.322c14.088,0,25.549-11.461,25.549-25.549c0-12.564-10.191-31.561-25.549-31.561
	c-15.358,0-25.549,18.996-25.549,31.561C308.896,133.86,320.357,145.322,334.445,145.322z M334.445,103.241
	c4.523,0,10.52,9.424,10.52,16.532c0,5.801-4.719,10.52-10.52,10.52s-10.52-4.719-10.52-10.52
	C323.925,112.665,329.922,103.241,334.445,103.241z"/>
<path d="M178.145,145.322c14.088,0,25.549-11.461,25.549-25.549c0-12.564-10.19-31.561-25.549-31.561s-25.549,18.996-25.549,31.561
	C152.596,133.86,164.057,145.322,178.145,145.322z M178.145,103.241c4.523,0,10.52,9.424,10.52,16.532
	c0,5.801-4.719,10.52-10.52,10.52s-10.52-4.719-10.52-10.52C167.624,112.665,173.621,103.241,178.145,103.241z"/>
<path d="M240.264,175.38h8.516v8.516c0,4.151,3.364,7.514,7.514,7.514c4.151,0,7.514-3.363,7.514-7.514v-8.516h8.516
	c4.151,0,7.514-3.363,7.514-7.514s-3.363-7.514-7.514-7.514h-8.516v-8.516c0-4.151-3.363-7.514-7.514-7.514
	c-4.15,0-7.514,3.363-7.514,7.514v8.516h-8.516c-4.15,0-7.514,3.363-7.514,7.514S236.114,175.38,240.264,175.38z"/>
<path d="M252.26,294.612c2.435,1.551,5.633,1.55,8.068,0c3.413-2.171,84.259-54.214,144.252-144.205
	c24.827-37.239,19.211-93.706-12.519-125.874C376.547,8.804,332.6-22.106,256.295,25.212
	c-76.301-47.317-120.251-16.408-135.767-0.679c-31.73,32.167-37.346,88.634-12.519,125.874
	C168.002,240.396,248.847,292.44,252.26,294.612z M131.227,35.087c13.112-13.295,29.793-19.914,48.875-19.914
	c21.541,0,46.142,8.44,72.11,25.242c2.484,1.607,5.68,1.607,8.164,0c48.972-31.687,93.07-33.63,120.985-5.328
	c26.992,27.365,31.798,75.357,10.714,106.982C341.357,218.147,273.4,267.498,256.291,279.23
	c-17.105-11.719-84.995-60.985-135.779-137.16C99.43,110.444,104.236,62.452,131.227,35.087z"/>
<g>
</g>
<g>
</g>
<g>
</g>
<g>
</g>
<g>
</g>
<g>
</g>
<g>
</g>
<g>
</g>
<g>
</g>
<g>
</g>
<g>
</g>
<g>
</g>
<g>
</g>
<g>
</g>
<g>
</g>
</svg>
